<svg width="36" height="36" viewBox="0 0 36 36" fill="none" xmlns="http://www.w3.org/2000/svg">
<path fill-rule="evenodd" clip-rule="evenodd" d="M19 25.5863C19 27.3673 21.1542 28.2603 22.4141 27.0004L30.7067 18.7168C31.0974 18.3265 31.0978 17.6934 30.7075 17.3026L22.4155 9.00063C21.1552 7.74033 19 8.63228 19 10.4143V15.9983H21L21.0009 10.4144L28.5858 18.0085L21 25.5863V22.0093C21 21.457 20.5523 21.0093 20 21.0093H9V23.0093H19V25.5863ZM7.41247 13.9998L8.70711 12.7051C9.09763 12.3146 9.09763 11.6814 8.70711 11.2909C8.31658 10.9004 7.68342 10.9004 7.29289 11.2909L4.29289 14.2909C3.90237 14.6814 3.90237 15.3146 4.29289 15.7051L7.29289 18.7051C7.68342 19.0956 8.31658 19.0956 8.70711 18.7051C9.09763 18.3146 9.09763 17.6814 8.70711 17.2909L7.41596 15.9998L17.0002 15.998L16.9998 13.998L7.41247 13.9998Z" fill="white"/>
</svg>
