<svg width="36" height="36" viewBox="0 0 36 36" fill="none" xmlns="http://www.w3.org/2000/svg">
<path fill-rule="evenodd" clip-rule="evenodd" d="M5.0005 19.9186C5.0005 12.739 10.8205 6.91861 18.0005 6.91861C25.1798 6.91861 31.0005 12.7393 31.0005 19.9186C31.0005 20.2034 30.9913 20.4866 30.973 20.768C30.9906 20.8425 31 20.9201 31 21C31 21.1427 30.9701 21.2785 30.9162 21.4013C30.5434 24.6633 28.9501 27.6378 26.4633 29.775C26.1965 30.0043 25.829 30.0765 25.4953 29.9653C23.0684 29.1563 20.5532 28.7366 18.0005 28.7366C15.4473 28.7366 12.9331 29.1562 10.5046 29.9653C10.171 30.0765 9.80343 30.0042 9.53671 29.775C7.05095 27.6387 5.45833 24.6654 5.08506 21.4042C5.03038 21.2806 5 21.1439 5 21C5 20.919 5.00963 20.8402 5.02782 20.7648C5.00967 20.4844 5.0005 20.2023 5.0005 19.9186ZM28.9993 20H27L26.8834 20.0067C26.386 20.0645 26 20.4872 26 21C26 21.5523 26.4477 22 27 22H28.8027C28.3758 24.2182 27.2736 26.2408 25.6464 27.8144L25.568 27.887L24.9955 27.7184C22.7193 27.0711 20.3754 26.7366 18.0005 26.7366L17.4074 26.7436C15.0376 26.7991 12.703 27.1873 10.432 27.888L10.3537 27.8145C8.72679 26.241 7.6249 24.2185 7.19822 22H9L9.11662 21.9933C9.61396 21.9355 10 21.5128 10 21C10 20.4477 9.55228 20 9 20H7.0008L7.0005 19.9186C7.0005 14.1808 11.3936 9.46895 17 8.9635V10.9189L17.0067 11.0355C17.0645 11.5329 17.4872 11.9189 18 11.9189C18.5523 11.9189 19 11.4712 19 10.9189V8.96342C24.6064 9.46848 29.0005 14.1808 29.0005 19.9186L28.9993 20ZM20 22.582C20 23.686 19.104 24.582 18 24.582C16.896 24.582 16 23.686 16 22.582C16 21.833 16.918 18.119 17.51 15.8C17.64 15.291 18.36 15.291 18.49 15.8C19.082 18.119 20 21.833 20 22.582Z" fill="white"/>
</svg>
